<svg xmlns="http://www.w3.org/2000/svg" width="287" height="218" viewBox="0 0 287 218">
  
  
  
  <defs>
    <linearGradient id="grad" x1="0%" y1="100%" x2="100%" y2="0%">
      <stop offset="0%" stop-color="#D4960E"></stop>
      <stop offset="100%" stop-color="#F5C526"></stop>
    </linearGradient>
  </defs>
  <path fill="url(#grad)" fill-rule="evenodd" d="&#xA;    M217.161,66.369 C216.096,68.197 215.13,70.071 214.22,71.97&#xA;    C210.054,61.378 203.747,51.653 195.568,43.474 L194.719,42.625&#xA;    C201.974,37.297 210.65,34.204 219.778,33.874&#xA;    C229.531,33.539 237.463,36.38 243.081,39.444&#xA;    C234.318,45.062 224.583,53.617 217.161,66.369 Z&#xA;    M199.037,135.577 L183.216,119.755&#xA;    C189.908,101.702 185.553,81.128 171.734,67.31&#xA;    L170.525,66.101 L175.198,61.427 L175.157,61.386 L185.29,51.252&#xA;    L186.539,52.501&#xA;    C198.505,64.468 205.784,80.321 207.051,97.16&#xA;    L207.06,99.654 L207.204,99.792&#xA;    C207.658,112.255 204.808,124.654 199.037,135.577 Z&#xA;    M101.378,137.662&#xA;    C115.18,151.466 135.738,155.824 153.787,149.154&#xA;    L169.618,164.985&#xA;    C142.534,179.36 108.708,174.603 86.572,152.469&#xA;    L85.331,151.228 L91.043,145.501 L91.084,145.541 L100.171,136.455&#xA;    L101.378,137.662 Z&#xA;    M259.328,35.215&#xA;    C254.156,30.73 239.888,20.356 219.316,21.121&#xA;    C204.632,21.649 190.827,27.665 180.437,38.055&#xA;    L20.819,197.673 L38.869,197.673&#xA;    L76.295,160.248 L77.543,161.497&#xA;    C93.682,177.636 115.083,185.948 136.626,185.947&#xA;    C152.901,185.947 169.26,181.201 183.486,171.503&#xA;    L189.853,167.163 L156.583,133.894 L152.508,135.847&#xA;    C138.398,142.602 121.479,139.704 110.407,128.635&#xA;    L109.198,127.427 L161.497,75.129 L162.705,76.337&#xA;    C173.791,87.423 176.686,104.354 169.907,118.465&#xA;    L167.948,122.544 L201.22,155.816 L205.561,149.451&#xA;    C215.926,134.255 220.979,115.755 219.851,97.275&#xA;    C221.032,88.524 223.833,80.294 228.189,72.785&#xA;    C236.76,58.053 249.065,49.993 257.875,45.812&#xA;    L266.718,41.631 L259.328,35.215 Z&#xA;  "></path>
</svg>